<svg width="200" height="200" viewBox="0 0 200 200" fill="none" xmlns="http://www.w3.org/2000/svg">
<path d="M200 100C200 155.228 155.228 200 100 200C44.7715 200 0 155.228 0 100C0 44.7715 44.7715 0 100 0C155.228 0 200 44.7715 200 100Z" fill="#3EB9FF"/>
<path d="M200 100C200 155.228 155.228 200 100 200C44.7715 200 0 155.228 0 100C0 44.7715 44.7715 0 100 0C155.228 0 200 44.7715 200 100Z" fill="#3EB9FF"/>
<path d="M68.1094 51.2031H103.969C117.938 51.2031 128.297 53.2891 135.047 57.4609C141.844 61.5859 145.242 68.0312 145.242 76.7969C145.242 82.5625 143.766 87.4844 140.812 91.5625C137.859 95.6406 133.969 98.2656 129.141 99.4375V100.141C135.516 101.828 140.133 104.641 142.992 108.578C145.852 112.516 147.281 117.625 147.281 123.906C147.281 133.234 143.766 140.594 136.734 145.984C129.75 151.328 120.211 154 108.117 154H68.1094V51.2031ZM95.8828 90.6484H104.25C108.234 90.6484 111.305 89.8281 113.461 88.1875C115.664 86.5469 116.766 84.1094 116.766 80.875C116.766 75.1094 112.406 72.2266 103.688 72.2266H95.8828V90.6484ZM95.8828 110.969V132.555H105.656C114.328 132.555 118.664 128.898 118.664 121.586C118.664 118.164 117.492 115.539 115.148 113.711C112.852 111.883 109.5 110.969 105.094 110.969H95.8828Z" fill="white"/>
</svg>
