<svg width="200" height="200" viewBox="0 0 200 200" fill="none" xmlns="http://www.w3.org/2000/svg">
<path d="M200 100C200 155.228 155.228 200 100 200C44.7715 200 0 155.228 0 100C0 44.7715 44.7715 0 100 0C155.228 0 200 44.7715 200 100Z" fill="#65FF4D"/>
<path d="M200 100C200 155.228 155.228 200 100 200C44.7715 200 0 155.228 0 100C0 44.7715 44.7715 0 100 0C155.228 0 200 44.7715 200 100Z" fill="#65FF4D"/>
<path d="M99.3828 93.8125H143.75V149.219C131.703 153.344 118.461 155.406 104.023 155.406C88.1797 155.406 75.9219 150.812 67.25 141.625C58.625 132.438 54.3125 119.336 54.3125 102.32C54.3125 85.7266 59.0469 72.8125 68.5156 63.5781C77.9844 54.3438 91.25 49.7266 108.312 49.7266C114.781 49.7266 120.875 50.3359 126.594 51.5547C132.359 52.7734 137.375 54.3203 141.641 56.1953L132.852 77.9922C125.445 74.3359 117.312 72.5078 108.453 72.5078C100.344 72.5078 94.0625 75.1562 89.6094 80.4531C85.2031 85.7031 83 93.2266 83 103.023C83 112.633 84.9922 119.969 88.9766 125.031C93.0078 130.047 98.7969 132.555 106.344 132.555C110.469 132.555 114.266 132.156 117.734 131.359V115.258H99.3828V93.8125Z" fill="white"/>
</svg>
