<svg width="200" height="203" viewBox="0 0 200 203" fill="none" xmlns="http://www.w3.org/2000/svg">
<path d="M200 103C200 158.228 155.228 203 100 203C44.7715 203 0 158.228 0 103C0 47.7715 44.7715 3 100 3C155.228 3 200 47.7715 200 103Z" fill="#FF5959"/>
<path d="M200 103C200 158.228 155.228 203 100 203C44.7715 203 0 158.228 0 103C0 47.7715 44.7715 3 100 3C155.228 3 200 47.7715 200 103Z" fill="#FF5959"/>
<path d="M89.8828 116.594V154H62.1094V51.2031H95.7891C123.727 51.2031 137.695 61.3281 137.695 81.5781C137.695 93.4844 131.883 102.695 120.258 109.211L150.211 154H118.711L96.9141 116.594H89.8828ZM89.8828 95.7109H95.0859C104.789 95.7109 109.641 91.4219 109.641 82.8438C109.641 75.7656 104.883 72.2266 95.3672 72.2266H89.8828V95.7109Z" fill="white"/>
</svg>
